HIERARCHY
ROOT joint_Root
{
	OFFSET 0.0 0.0 0.0
	CHANNELS 6 Xposition Yposition Zposition Zrotation Xrotation Yrotation 
	JOINT Hips
	{
		OFFSET -0.726466 93.3139 -2.00062
		CHANNELS 6 Xposition Yposition Zposition Zrotation Xrotation Yrotation 
		JOINT Spine
		{
			OFFSET 15.7357 0.0 0.0
			CHANNELS 6 Xposition Yposition Zposition Zrotation Xrotation Yrotation 
			JOINT Chest
			{
				OFFSET 8.98455 -0.406207 0.0
				CHANNELS 6 Xposition Yposition Zposition Zrotation Xrotation Yrotation 
				JOINT Neck
				{
					OFFSET 16.3773 0.0 0.0
					CHANNELS 6 Xposition Yposition Zposition Zrotation Xrotation Yrotation 
					JOINT Head
					{
						OFFSET 6.45672 0.0 0.0
						CHANNELS 6 Xposition Yposition Zposition Zrotation Xrotation Yrotation 
						End Site
						{
							OFFSET 0.0 0.0 0.0
						}
					}
				}
				JOINT Shoulder_L
				{
					OFFSET 12.9942 -0.242716 4.98039
					CHANNELS 6 Xposition Yposition Zposition Zrotation Xrotation Yrotation 
					JOINT UpperArm_L
					{
						OFFSET 5.34809 0.0 0.0
						CHANNELS 6 Xposition Yposition Zposition Zrotation Xrotation Yrotation 
						JOINT LowerArm_L
						{
							OFFSET 24.3286 1.87007e-05 0.0
							CHANNELS 6 Xposition Yposition Zposition Zrotation Xrotation Yrotation 
							JOINT Hand_L
							{
								OFFSET 22.2916 0.0 0.0
								CHANNELS 6 Xposition Yposition Zposition Zrotation Xrotation Yrotation 
								End Site
								{
									OFFSET 0.0 0.0 0.0
								}
							}
						}
					}
				}
				JOINT Shoulder_R
				{
					OFFSET 12.9945 -0.242716 -4.98039
					CHANNELS 6 Xposition Yposition Zposition Zrotation Xrotation Yrotation 
					JOINT UpperArm_R
					{
						OFFSET -5.34813 0.0 0.0
						CHANNELS 6 Xposition Yposition Zposition Zrotation Xrotation Yrotation 
						JOINT LowerArm_R
						{
							OFFSET -24.3289 0.000322201 0.0
							CHANNELS 6 Xposition Yposition Zposition Zrotation Xrotation Yrotation 
							JOINT Hand_R
							{
								OFFSET -22.2915 -0.000108084 0.0
								CHANNELS 6 Xposition Yposition Zposition Zrotation Xrotation Yrotation 
								End Site
								{
									OFFSET 0.0 0.0 0.0
								}
							}
						}
					}
				}
			}
		}
		JOINT UpperLeg_L
		{
			OFFSET -2.19248 -6.46944 0.0
			CHANNELS 6 Xposition Yposition Zposition Zrotation Xrotation Yrotation 
			JOINT LowerLeg_L
			{
				OFFSET 39.0811 0.0 -1.23785e-05
				CHANNELS 6 Xposition Yposition Zposition Zrotation Xrotation Yrotation 
				JOINT Foot_L
				{
					OFFSET 40.9854 0.0 -1.26872e-05
					CHANNELS 6 Xposition Yposition Zposition Zrotation Xrotation Yrotation 
					JOINT Toes_L
					{
						OFFSET 11.7543 0.0 0.0
						CHANNELS 6 Xposition Yposition Zposition Zrotation Xrotation Yrotation 
						End Site
						{
							OFFSET 0.0 0.0 0.0
						}
					}
				}
			}
		}
		JOINT UpperLeg_R
		{
			OFFSET -2.19251 6.46944 0.0
			CHANNELS 6 Xposition Yposition Zposition Zrotation Xrotation Yrotation 
			JOINT LowerLeg_R
			{
				OFFSET -39.0811 -0.00228153 -0.0401928
				CHANNELS 6 Xposition Yposition Zposition Zrotation Xrotation Yrotation 
				JOINT Foot_R
				{
					OFFSET -40.9854 0.0 0.0
					CHANNELS 6 Xposition Yposition Zposition Zrotation Xrotation Yrotation 
					JOINT Toes_R
					{
						OFFSET -11.7543 0.0 0.0
						CHANNELS 6 Xposition Yposition Zposition Zrotation Xrotation Yrotation 
						End Site
						{
							OFFSET 0.0 0.0 0.0
						}
					}
				}
			}
		}
	}
}
MOTION
Frames:	7
Frame Time:	0.0333333
0.000000 0.000000 0.000000 0.000000 0.000000 -0.000000 -1.808810 92.348700 -1.642280 88.455900 0.129087 3.831140 15.735700 0.000005 -0.000001 79.845100 85.739700 -78.166300 8.984550 -0.406207 -0.000000 0.647231 -1.606010 3.364310 16.377300 -0.000001 -0.000001 3.135840 -2.213520 -1.568890 6.456720 -0.000001 -0.000000 4.554850 -2.883050 -1.621480 12.994200 -0.242716 4.980390 -88.050200 -5.515060 -70.494500 5.348090 -0.000007 -0.000001 -80.154400 -38.435200 -83.373500 24.328600 0.000019 0.000005 4.876960 -0.205777 -92.410400 22.291600 -0.000001 0.000005 20.104200 5.608700 -11.877400 12.994500 -0.242716 -4.980390 88.275300 5.586760 -72.813800 -5.348130 -0.000001 -0.000004 -64.390400 39.458900 -15.676300 -24.328900 0.000322 -0.000009 2.086170 7.384220 -15.831700 -22.291500 -0.000108 -0.000004 8.263930 5.428500 -3.887540 -2.192480 -6.469440 -0.000000 -175.308000 -5.519020 -2.992600 39.081100 -0.000007 -0.000012 -0.106585 0.260221 22.273800 40.985400 -0.000006 -0.000013 -0.747135 4.284070 -65.676400 11.754300 -0.000000 0.000003 -0.000025 -0.000303 -16.589400 -2.192510 6.469440 -0.000001 -179.677000 14.250900 -179.932000 -39.081100 -0.002282 -0.040193 -0.013346 0.047758 19.240500 -40.985400 0.000008 0.000006 4.792920 6.062650 -66.219700 -11.754300 -0.000006 -0.000006 -0.005905 -0.069972 -19.420800
0.000000 0.000000 0.000000 0.000000 0.000000 -0.000000 -1.795140 92.346500 -1.651150 88.460300 0.138888 3.823230 15.735700 0.000005 -0.000001 80.005600 85.735800 -78.342700 8.984550 -0.406207 -0.000000 0.658460 -1.582700 3.332670 16.377300 -0.000001 -0.000001 3.109390 -2.216280 -1.570940 6.456720 -0.000001 -0.000000 4.556890 -2.963950 -1.615980 12.994200 -0.242716 4.980390 -88.043400 -5.532950 -70.489700 5.348090 -0.000007 -0.000001 -80.101800 -38.520600 -83.260500 24.328600 0.000019 0.000005 4.812070 -0.206294 -92.449200 22.291600 -0.000001 0.000005 19.933500 5.608950 -11.892700 12.994500 -0.242716 -4.980390 88.272900 5.582950 -72.780300 -5.348130 -0.000001 -0.000004 -64.415500 39.708700 -15.701400 -24.328900 0.000322 -0.000009 2.054080 7.226270 -15.922000 -22.291500 -0.000108 -0.000004 8.250370 5.428610 -3.891450 -2.192480 -6.469440 -0.000000 -175.333000 -5.512910 -3.024990 39.081100 -0.000007 -0.000012 -0.105258 0.256627 22.301600 40.985400 -0.000006 -0.000013 -0.733997 4.263690 -65.681400 11.754300 -0.000000 0.000003 -0.000026 -0.000315 -16.589900 -2.192510 6.469440 -0.000001 -179.684000 14.234800 -179.965000 -39.081100 -0.002282 -0.040193 -0.013563 0.048278 19.277400 -40.985400 0.000008 0.000006 4.807660 6.049160 -66.232800 -11.754300 -0.000006 -0.000006 -0.005907 -0.069988 -19.421400
0.000000 0.000000 0.000000 0.000000 0.000000 -0.000000 -1.780870 92.346500 -1.641380 88.469700 0.095725 3.815080 15.735700 0.000005 -0.000001 80.053000 85.735200 -78.408900 8.984550 -0.406207 -0.000000 0.660449 -1.574780 3.295020 16.377300 -0.000001 -0.000001 3.113740 -2.222210 -1.558510 6.456720 -0.000001 -0.000000 4.533280 -2.957690 -1.630490 12.994200 -0.242716 4.980390 -88.030300 -5.549240 -70.421900 5.348090 -0.000007 -0.000001 -79.778800 -38.607600 -82.640500 24.328600 0.000019 0.000005 4.726410 -0.224938 -92.718800 22.291600 -0.000001 0.000005 19.992200 5.607410 -11.796500 12.994500 -0.242716 -4.980390 88.261800 5.618680 -72.779000 -5.348130 -0.000001 -0.000004 -64.479400 39.797100 -15.693000 -24.328900 0.000322 -0.000009 2.074860 7.278430 -15.966200 -22.291500 -0.000108 -0.000004 8.227930 5.427380 -3.849240 -2.192480 -6.469440 -0.000000 -175.355000 -5.476810 -3.014060 39.081100 -0.000007 -0.000012 -0.105459 0.257291 22.288000 40.985400 -0.000006 -0.000013 -0.737993 4.211010 -65.686900 11.754300 -0.000000 0.000003 -0.000027 -0.000324 -16.590200 -2.192510 6.469440 -0.000001 -179.699000 14.194300 -179.969000 -39.081100 -0.002282 -0.040193 -0.013957 0.049412 19.274800 -40.985400 0.000008 0.000006 4.750440 6.040110 -66.225500 -11.754300 -0.000006 -0.000006 -0.005810 -0.069101 -19.385300
0.000000 0.000000 0.000000 0.000000 0.000000 -0.000000 -1.769630 92.341300 -1.623860 88.478100 0.094312 3.844670 15.735700 0.000005 -0.000001 80.238200 85.724900 -78.613800 8.984550 -0.406207 -0.000000 0.684729 -1.549540 3.255680 16.377300 -0.000001 -0.000001 3.087410 -2.210980 -1.550730 6.456720 -0.000001 -0.000000 4.588410 -2.984260 -1.612390 12.994200 -0.242716 4.980390 -88.047200 -5.505590 -70.435500 5.348090 -0.000007 -0.000001 -79.039000 -38.560400 -81.220500 24.328600 0.000019 0.000005 4.363000 -0.260982 -93.418200 22.291600 -0.000001 0.000005 20.242100 5.604620 -11.623000 12.994500 -0.242716 -4.980390 88.240300 5.678470 -72.750900 -5.348130 -0.000001 -0.000004 -64.528900 39.823000 -15.655200 -24.328900 0.000322 -0.000009 2.068240 7.234390 -16.009300 -22.291500 -0.000108 -0.000004 8.341150 5.428010 -3.870760 -2.192480 -6.469440 -0.000000 -175.356000 -5.558450 -2.980660 39.081100 -0.000007 -0.000012 -0.106044 0.258415 22.311400 40.985400 -0.000006 -0.000013 -0.719031 4.266730 -65.711800 11.754300 -0.000000 0.000003 -0.000022 -0.000272 -16.588200 -2.192510 6.469440 -0.000001 -179.715000 14.111200 -179.951000 -39.081100 -0.002282 -0.040193 -0.014248 0.050115 19.321400 -40.985400 0.000008 0.000006 4.764990 5.969930 -66.258600 -11.754300 -0.000006 -0.000006 -0.005855 -0.069511 -19.402000
0.000000 0.000000 0.000000 0.000000 0.000000 -0.000000 -1.769320 92.346600 -1.607980 88.489100 0.109796 3.865360 15.735700 0.000005 -0.000001 80.386500 85.738300 -78.790000 8.984550 -0.406207 -0.000000 0.661321 -1.521890 3.199420 16.377300 -0.000001 -0.000001 3.136310 -2.174210 -1.537480 6.456720 -0.000001 -0.000000 4.644120 -3.018040 -1.543620 12.994200 -0.242716 4.980390 -88.054800 -5.482090 -70.429600 5.348090 -0.000007 -0.000001 -77.646400 -38.032000 -78.286800 24.328600 0.000019 0.000005 2.545700 -0.221536 -94.985100 22.291600 -0.000001 0.000005 20.416200 5.600670 -11.384000 12.994500 -0.242716 -4.980390 88.212500 5.754950 -72.712700 -5.348130 -0.000001 -0.000004 -64.621800 39.777100 -15.523000 -24.328900 0.000322 -0.000009 2.107290 7.354840 -16.044100 -22.291500 -0.000108 -0.000004 8.367340 5.426960 -3.834920 -2.192480 -6.469440 -0.000000 -175.372000 -5.517200 -2.916110 39.081100 -0.000007 -0.000012 -0.105107 0.256894 22.251700 40.985400 -0.000006 -0.000013 -0.716419 4.265400 -65.698700 11.754300 -0.000000 0.000003 -0.000027 -0.000332 -16.590500 -2.192510 6.469440 -0.000001 -179.717000 14.085000 -179.896000 -39.081100 -0.002282 -0.040193 -0.012004 0.043818 19.278800 -40.985400 0.000008 0.000006 4.807970 5.917020 -66.255500 -11.754300 -0.000006 -0.000006 -0.005866 -0.069609 -19.406000
0.000000 0.000000 0.000000 0.000000 0.000000 -0.000000 -1.764990 92.333200 -1.586410 88.491700 0.133489 3.873970 15.735700 0.000005 -0.000001 80.640400 85.750100 -79.061600 8.984550 -0.406207 -0.000000 0.643348 -1.479960 3.163680 16.377300 -0.000001 -0.000001 3.115890 -2.159940 -1.491210 6.456720 -0.000001 -0.000000 4.704790 -2.999130 -1.594380 12.994200 -0.242716 4.980390 -88.124700 -5.325690 -70.569600 5.348090 -0.000007 -0.000001 -74.877000 -37.174700 -73.310600 24.328600 0.000019 0.000005 0.442395 -0.058204 -97.566100 22.291600 -0.000001 0.000005 20.768300 5.593020 -10.934100 12.994500 -0.242716 -4.980390 88.186500 5.812990 -72.640500 -5.348130 -0.000001 -0.000004 -64.627200 39.805400 -15.497400 -24.328900 0.000322 -0.000009 2.097000 7.339490 -16.001200 -22.291500 -0.000108 -0.000004 8.392460 5.428060 -3.872580 -2.192480 -6.469440 -0.000000 -175.360000 -5.584530 -2.947350 39.081100 -0.000007 -0.000012 -0.106764 0.259768 22.342500 40.985400 -0.000006 -0.000013 -0.701139 4.338970 -65.748400 11.754300 -0.000000 0.000003 -0.000027 -0.000331 -16.590500 -2.192510 6.469440 -0.000001 -179.729000 14.031400 -179.916000 -39.081100 -0.002282 -0.040193 -0.015234 0.052803 19.362800 -40.985400 0.000008 0.000006 4.716040 5.843640 -66.294300 -11.754300 -0.000006 -0.000006 -0.005842 -0.069398 -19.397400
0.000000 0.000000 0.000000 0.000000 0.000000 -0.000000 -1.765060 92.333900 -1.583350 88.502300 0.189033 3.917630 15.735700 0.000005 -0.000001 80.989300 85.734000 -79.441300 8.984550 -0.406207 -0.000000 0.682151 -1.431440 3.102280 16.377300 -0.000001 -0.000001 3.009360 -2.162080 -1.376950 6.456720 -0.000001 -0.000000 4.675040 -2.934280 -1.651030 12.994200 -0.242716 4.980390 -88.290800 -4.934950 -70.870000 5.348090 -0.000007 -0.000001 -70.469100 -35.665500 -66.459100 24.328600 0.000019 0.000005 -0.243859 0.047084 -100.829000 22.291600 -0.000001 0.000005 20.885400 5.586950 -10.591100 12.994500 -0.242716 -4.980390 88.144300 5.919920 -72.560600 -5.348130 -0.000001 -0.000004 -64.632300 39.726000 -15.446000 -24.328900 0.000322 -0.000009 2.117790 7.417030 -15.992400 -22.291500 -0.000108 -0.000004 8.374260 5.427470 -3.852450 -2.192480 -6.469440 -0.000000 -175.371000 -5.540460 -2.894760 39.081100 -0.000007 -0.000012 -0.106668 0.259753 22.325600 40.985400 -0.000006 -0.000013 -0.694776 4.356800 -65.744900 11.754300 -0.000000 0.000003 -0.000029 -0.000350 -16.591200 -2.192510 6.469440 -0.000001 -179.744000 14.057400 -179.863000 -39.081100 -0.002282 -0.040193 -0.013314 0.047343 19.361600 -40.985400 0.000008 0.000006 4.749540 5.818220 -66.306600 -11.754300 -0.000006 -0.000006 -0.005743 -0.068481 -19.360000
